<?xml version="1.0" standalone="no"?>
<!DOCTYPE svg PUBLIC "-//W3C//DTD SVG 20010904//EN"
 "http://www.w3.org/TR/2001/REC-SVG-20010904/DTD/svg10.dtd">
<svg version="1.0" xmlns="http://www.w3.org/2000/svg"
 width="1964.000000pt" height="1964.000000pt" viewBox="0 0 1964.000000 1964.000000"
 preserveAspectRatio="xMidYMid meet">
<metadata>
Created by potrace 1.14, written by Peter Selinger 2001-2017
</metadata>
<g transform="translate(0.000000,1964.000000) scale(0.100000,-0.100000)"
fill="#000000" stroke="none">
<path d="M10565 17802 c-59 -9 -188 -48 -242 -72 -229 -104 -406 -316 -475
-569 -16 -58 -21 -107 -22 -206 0 -141 9 -194 57 -320 41 -110 99 -196 205
-306 l44 -47 -58 -103 c-33 -57 -71 -124 -86 -149 -15 -25 -31 -52 -35 -60 -4
-8 -27 -49 -51 -90 -48 -79 -69 -117 -110 -190 -14 -25 -98 -171 -187 -325
-90 -154 -174 -300 -188 -325 -14 -25 -70 -122 -124 -215 l-99 -170 -330 -2
c-745 -5 -1270 -12 -1294 -17 -13 -3 -38 -19 -54 -36 l-31 -30 -2 -1915 -3
-1916 33 -34 c31 -34 35 -35 132 -43 106 -7 5876 -10 6030 -3 125 7 156 16
183 55 l22 32 -3 1911 c-2 1888 -3 1912 -22 1933 -55 61 -34 59 -1035 60
l-655 0 -70 121 c-78 135 -109 190 -150 264 -15 28 -35 58 -44 69 -9 10 -15
20 -13 22 1 2 -4 14 -12 27 -8 12 -69 119 -137 237 -114 200 -234 408 -282
490 -11 19 -27 46 -34 60 -23 41 -58 101 -98 170 -21 36 -51 89 -68 118 l-29
53 54 57 c118 124 187 244 229 398 30 110 30 318 0 427 -49 178 -157 344 -304
464 -89 74 -273 154 -387 169 -60 7 -223 12 -255 6z m239 -287 c27 -4 61 -14
75 -21 14 -8 31 -14 37 -14 19 0 115 -69 167 -119 113 -108 167 -234 172 -396
3 -88 0 -111 -26 -187 -64 -197 -197 -328 -393 -386 -89 -27 -244 -24 -337 6
-70 23 -166 81 -217 130 -72 70 -144 188 -156 257 -3 13 -8 30 -11 35 -11 18
-14 172 -4 226 23 129 75 229 166 319 31 30 59 55 64 55 4 0 14 6 21 13 23 23
126 67 180 77 28 6 53 12 55 13 6 6 158 1 207 -8z m-351 -1394 c82 -32 323
-33 440 -3 l78 20 30 -41 c28 -38 100 -156 152 -247 17 -31 173 -299 197 -340
39 -66 148 -255 173 -300 16 -30 38 -67 49 -82 10 -14 18 -28 18 -31 0 -2 42
-76 93 -163 51 -88 96 -166 100 -174 4 -8 16 -30 28 -49 11 -18 18 -40 15 -47
-4 -10 -215 -13 -1150 -13 -630 0 -1147 3 -1150 7 -2 4 30 66 71 137 41 72 84
146 95 165 10 19 27 49 37 65 10 17 154 266 321 555 166 289 309 533 318 542
15 18 36 18 85 -1z m3147 -2145 c-1 -218 -5 -396 -8 -397 -4 0 -30 -2 -59 -5
-100 -9 -161 -41 -267 -141 -131 -123 -122 -118 -148 -100 -13 8 -45 36 -73
61 -64 60 -118 85 -193 92 -80 8 -118 -6 -206 -76 -94 -76 -288 -278 -321
-334 -31 -53 -43 -159 -26 -222 14 -51 68 -123 194 -254 86 -90 97 -106 98
-138 0 -20 2 -46 4 -57 2 -11 7 -51 10 -90 4 -38 8 -81 10 -95 2 -14 6 -54 10
-90 4 -36 8 -76 10 -90 13 -102 17 -129 26 -156 13 -43 84 -113 138 -137 60
-27 160 -28 216 -2 24 12 130 108 268 245 126 124 231 224 234 223 2 0 22 -17
44 -36 l39 -36 0 -605 0 -606 -1327 0 -1328 0 46 43 c25 23 94 87 154 142 176
163 185 171 312 297 102 100 126 129 143 175 46 123 72 516 41 608 -18 51
-102 133 -172 168 -64 31 -108 56 -328 186 -296 174 -360 211 -388 223 -18 7
-130 12 -308 14 -496 6 -517 -9 -672 -471 -64 -188 -68 -205 -67 -290 0 -131
11 -149 229 -372 l184 -188 1 -267 0 -268 -1186 0 -1185 0 2 1707 c0 939 3
1712 6 1719 3 9 686 12 2924 13 l2920 2 -1 -395z m-22 -682 l22 -6 0 -399 c0
-220 -3 -399 -7 -400 -5 0 -44 -1 -88 -2 -113 -3 -98 9 -551 -434 -31 -31 -40
-29 -42 10 -1 18 -4 43 -7 55 -2 12 -7 57 -10 100 -7 81 -8 94 -20 207 -9 87
-28 168 -54 220 -10 22 -70 93 -133 159 -62 65 -115 123 -117 128 -2 5 57 70
129 143 l133 134 58 -53 c119 -107 227 -138 340 -98 63 22 75 30 179 128 77
72 128 114 139 114 3 0 16 -3 29 -6z m-2744 -885 c321 -192 506 -299 529 -304
18 -5 23 -13 21 -33 -9 -127 -16 -203 -20 -237 -2 -22 -7 -59 -9 -83 -5 -53
-19 -79 -60 -117 -18 -16 -85 -79 -149 -140 -65 -60 -132 -123 -150 -140 -18
-16 -82 -75 -142 -131 -60 -56 -133 -123 -162 -150 -30 -27 -77 -70 -105 -96
-51 -47 -53 -48 -119 -48 l-68 0 -1 218 c-1 245 -3 298 -14 362 -14 83 -22 93
-240 318 -140 144 -165 176 -165 208 0 12 24 93 54 180 77 224 78 226 103 260
l22 32 252 1 251 2 172 -102z"/>
<path d="M9039 14117 c-35 -16 -89 -40 -119 -54 -270 -122 -343 -172 -390
-267 -30 -60 -32 -73 -37 -203 -3 -76 -6 -139 -7 -139 0 -1 -42 -4 -92 -7
-131 -8 -213 -56 -265 -157 -22 -43 -23 -53 -23 -280 1 -265 6 -290 78 -362
72 -72 109 -83 306 -86 96 -2 177 -7 180 -11 3 -4 66 -56 140 -116 74 -60 140
-114 146 -120 131 -117 220 -150 323 -119 62 18 145 91 162 141 11 35 17 194
18 486 l1 147 110 0 c219 0 301 42 345 178 21 62 17 115 -17 237 -14 50 -38
144 -53 210 l-29 120 -70 70 c-39 39 -96 91 -126 117 -226 190 -260 214 -349
235 -86 20 -157 14 -232 -20z m204 -269 c69 -48 186 -147 268 -228 53 -51 58
-60 74 -135 10 -44 20 -84 21 -90 20 -68 30 -137 20 -140 -6 -2 -61 -6 -122
-8 -83 -4 -122 -10 -155 -25 -74 -34 -132 -97 -144 -157 -6 -33 -13 -203 -16
-422 -1 -81 -6 -143 -12 -143 -8 0 -213 163 -227 181 -3 3 -42 33 -87 66 -107
80 -153 91 -375 92 l-108 1 0 165 0 165 58 1 c55 1 90 4 122 11 57 13 159 100
182 157 19 44 20 52 25 186 3 81 10 138 18 151 12 19 104 68 254 136 36 16 80
36 96 44 43 19 72 17 108 -8z"/>
<path d="M430 14240 l0 -3560 695 0 695 0 2 2070 3 2070 199 -392 c109 -216
258 -510 331 -653 124 -243 448 -882 716 -1410 l116 -230 473 0 473 0 368 730
c202 402 506 1006 676 1342 l308 613 3 -2070 2 -2070 695 0 695 0 0 3560 0
3560 -685 0 -685 0 -66 -137 c-37 -76 -86 -178 -109 -228 -23 -49 -80 -166
-125 -260 -45 -93 -104 -215 -130 -270 -26 -55 -83 -172 -125 -260 -43 -88
-99 -205 -125 -260 -53 -112 -130 -272 -245 -510 -42 -88 -99 -205 -125 -260
-107 -224 -171 -358 -240 -500 -94 -194 -189 -393 -252 -525 -28 -58 -89 -184
-135 -280 -47 -96 -103 -214 -125 -262 -23 -49 -44 -88 -47 -88 -4 0 -27 42
-51 93 -24 50 -87 182 -141 292 -53 110 -123 256 -157 325 -33 69 -97 202
-142 295 -45 94 -116 240 -157 325 -41 85 -101 209 -133 275 -83 171 -202 417
-280 580 -37 77 -105 217 -150 310 -114 235 -210 435 -290 600 -37 77 -105
217 -150 310 -45 94 -111 230 -146 303 l-63 132 -686 0 -685 0 0 -3560z"/>
<path d="M14410 14240 l0 -3560 695 0 695 0 0 1340 0 1340 743 1 c408 0 771 2
807 4 87 5 192 15 210 20 8 2 38 6 65 10 28 3 91 15 140 26 50 11 101 22 114
25 14 3 74 21 134 40 401 130 729 344 988 644 47 55 75 91 156 206 23 32 88
145 131 229 53 101 139 330 157 415 2 14 14 66 25 115 50 232 62 596 26 830
-82 528 -314 965 -692 1305 -318 286 -788 491 -1249 545 -32 4 -68 10 -80 13
-11 3 -705 8 -1542 9 l-1523 4 0 -3561z m2918 2300 c317 -57 547 -214 685
-470 119 -218 150 -546 75 -795 -74 -246 -228 -432 -453 -547 -75 -38 -201
-81 -275 -93 -25 -4 -54 -10 -65 -13 -11 -3 -352 -8 -757 -9 l-738 -4 0 976 0
976 713 -1 c647 -1 721 -3 815 -20z"/>
<path d="M2495 9045 c-412 -45 -741 -151 -1072 -347 -226 -133 -479 -345 -643
-538 -30 -36 -57 -67 -60 -70 -7 -6 -64 -86 -112 -155 -161 -235 -295 -594
-343 -920 -4 -22 -8 -47 -10 -55 -2 -8 -7 -37 -10 -65 -3 -27 -8 -63 -10 -80
-34 -265 -40 -461 -40 -1385 1 -880 5 -1061 30 -1270 2 -19 7 -60 10 -90 3
-30 7 -66 10 -79 2 -14 7 -45 10 -70 3 -25 7 -55 9 -66 2 -11 12 -56 21 -100
107 -526 349 -945 740 -1280 32 -27 63 -55 69 -60 6 -6 29 -24 51 -40 22 -17
42 -33 45 -36 8 -10 211 -143 265 -174 315 -182 712 -303 1085 -333 116 -10
475 -9 585 1 591 53 1104 265 1515 626 348 307 564 626 696 1031 25 75 68 239
78 295 3 17 8 41 11 55 7 32 22 132 30 190 3 25 8 56 10 70 2 14 7 63 11 110
4 47 9 99 11 115 3 17 7 364 10 773 l5 742 -1346 0 -1346 0 0 -580 0 -580 656
0 656 0 -5 -242 c-3 -134 -7 -252 -10 -263 -3 -11 -8 -42 -11 -70 -21 -157
-100 -371 -180 -488 -14 -21 -26 -40 -26 -43 0 -3 -6 -11 -12 -19 -7 -7 -24
-28 -38 -46 -84 -111 -225 -223 -390 -310 -103 -55 -289 -108 -440 -127 -72
-9 -332 -9 -390 0 -231 36 -417 112 -570 233 -64 51 -174 172 -224 248 -98
148 -166 352 -191 576 -3 19 -6 48 -9 65 -3 17 -8 69 -12 116 -3 47 -8 101
-10 120 -27 299 -26 1698 1 2025 2 28 7 82 10 121 3 39 7 80 9 90 2 11 7 46
11 79 4 32 9 68 11 80 2 11 9 47 15 80 22 124 83 286 142 380 176 281 468 469
807 519 92 14 383 15 440 2 13 -3 42 -8 65 -12 62 -9 181 -43 255 -73 335
-137 559 -405 686 -819 18 -62 34 -115 34 -118 0 -2 315 -4 701 -4 l701 0 -5
23 c-3 12 -13 62 -22 111 -19 106 -64 275 -110 411 -26 79 -131 327 -157 370
-6 11 -27 49 -46 85 -19 36 -41 72 -48 81 -8 8 -14 18 -14 22 0 10 -116 175
-178 252 -81 101 -174 198 -297 310 -108 98 -338 252 -492 329 -116 58 -362
153 -443 172 -8 1 -31 8 -50 14 -63 19 -273 59 -370 70 -52 6 -106 14 -120 16
-59 12 -530 11 -645 -1z"/>
<path d="M7218 8998 c0 -2 -2 -1604 -3 -3561 l-1 -3557 2345 2 2345 3 0 615 1
615 -1650 5 -1650 5 -1 862 0 863 1405 2 1405 3 0 615 0 615 -1405 5 -1405 5
0 833 0 832 1647 0 c1309 0 1648 3 1651 13 2 6 3 284 3 617 l-1 605 -2342 3
c-1288 1 -2343 1 -2344 0z"/>
<path d="M13570 5440 l0 -3560 694 0 694 0 0 2176 c0 1197 2 2178 5 2180 3 3
75 -105 177 -266 14 -22 59 -92 100 -156 41 -63 82 -126 90 -140 8 -13 71
-111 140 -217 117 -182 233 -360 305 -472 17 -27 63 -97 101 -155 38 -58 72
-112 76 -120 4 -8 43 -69 87 -135 92 -140 290 -446 309 -478 7 -12 38 -61 70
-110 49 -75 569 -880 689 -1067 23 -36 47 -70 53 -77 5 -7 10 -14 10 -17 0 -3
35 -58 77 -123 159 -245 241 -370 289 -445 27 -43 93 -145 146 -228 l98 -150
620 0 620 0 -1 3560 0 3560 -694 0 -695 0 -2 -2177 -3 -2177 -64 100 c-35 54
-88 135 -116 179 -29 44 -108 166 -175 270 -198 306 -221 342 -415 641 -27 42
-59 92 -70 109 -23 38 -178 276 -280 433 -39 59 -119 184 -179 277 -60 94
-146 226 -191 295 -45 69 -103 159 -130 200 -104 162 -170 264 -305 470 -77
118 -149 231 -160 250 -11 19 -179 280 -374 580 l-354 545 -621 3 -621 2 0
-3560z"/>
</g>
</svg>
